<svg xmlns="http://www.w3.org/2000/svg" xmlns:xlink="http://www.w3.org/1999/xlink" viewBox="0 0 16 16"><defs><linearGradient id="a"><stop offset="0" style="stop-color:#c358f8"/><stop offset="1" style="stop-color:#7835ff"/></linearGradient><linearGradient id="b"><stop offset="0" style="stop-color:#b550fa"/><stop offset="1" style="stop-color:#f2a0af"/></linearGradient><linearGradient xlink:href="#a" id="c" x1="233.208" x2="235.371" y1="155.572" y2="159.662" gradientTransform="matrix(2.6007 0 0 2.6007 -309.461 -64.369)" gradientUnits="userSpaceOnUse"/><linearGradient xlink:href="#b" id="d" x1="238.321" x2="236.355" y1="154.077" y2="159.465" gradientTransform="matrix(2.6007 0 0 2.6007 -314.072 -64.369)" gradientUnits="userSpaceOnUse"/></defs><path d="m299.27 340.22-1.808.015c-.763 0-1.014.478-.83 1.167l1.667 7.4c.366 1.367.61 1.614.862 1.614h.481c.954 0 1.292-.572 1.663-1.614l2.634-7.4h-3.468c-.247-.554-.332-1.182-1.201-1.182z" style="fill:url(#c)" transform="translate(-296.575 -336.328)"/><path d="M305.072 336.328h4.245c.34 0 1.046.194.767 1.007l-3.525 11.825c-.364 1.022-.698 1.255-1.77 1.255h-5.628c.292 0 .603-.571.974-1.613l3.352-11.34c.245-.65.57-1.134 1.585-1.134z" style="fill:url(#d)" transform="translate(-296.575 -336.328)"/></svg>
