<?xml version="1.0" encoding="UTF-8" standalone="no"?>
<!-- Created with Inkscape (http://www.inkscape.org/) -->
<svg width="31.846947mm" height="31.741907mm" viewBox="0 0 31.846947 31.741907" version="1.1" id="svg5" xml:space="preserve" inkscape:version="1.2.2 (b0a8486541, 2022-12-01)" sodipodi:docname="raddle.svg" xmlns:inkscape="http://www.inkscape.org/namespaces/inkscape" xmlns:sodipodi="http://sodipodi.sourceforge.net/DTD/sodipodi-0.dtd" xmlns="http://www.w3.org/2000/svg" xmlns:svg="http://www.w3.org/2000/svg"><sodipodi:namedview id="namedview7" pagecolor="#ffffff" bordercolor="#999999" borderopacity="1" inkscape:showpageshadow="0" inkscape:pageopacity="0" inkscape:pagecheckerboard="0" inkscape:deskcolor="#d1d1d1" inkscape:document-units="mm" showgrid="false" inkscape:zoom="3.920673" inkscape:cx="47.313306" inkscape:cy="60.703864" inkscape:window-width="1920" inkscape:window-height="1051" inkscape:window-x="0" inkscape:window-y="0" inkscape:window-maximized="1" inkscape:current-layer="layer1"/><defs id="defs2"/><g inkscape:label="Layer 1" inkscape:groupmode="layer" id="layer1" transform="translate(-132.56262,-62.963913)"><path style="fill:#ff0a00;fill-opacity:1;stroke:none;stroke-width:0.264583" d="m 154.88994,62.969624 c -0.91338,0.116442 -0.79375,2.645833 -0.79375,2.645833 0,0 -1.07044,-0.840515 -1.63947,-0.679026 -0.24589,0.06978 -0.60392,0.439676 -0.47719,0.679026 0.33127,0.625674 1.61224,0.821988 2.34123,1.347766 1.19154,0.859391 2.1507,1.686853 1.8921,1.827234 -1.89403,0.258266 -1.9778,0.766153 -1.05833,2.38125 -3.95369,-0.40714 -5.76389,-4.975251 -9.26042,-6.473719 -1.06931,-0.458258 -3.48852,-1.111231 -4.41483,0.238443 -0.92631,1.349674 -0.91304,4.134598 -0.53097,6.235276 0.39803,2.188472 1.02541,3.884002 -0.34586,5.027084 -0.34868,-2.191775 0.44122,-3.868816 -0.79375,-3.704167 -0.45579,0.04591 -0.79943,2.617447 -0.79375,2.645833 -1.23844,-0.660347 -3.06131,-1.953188 -4.48242,-1.990301 -0.32471,-0.0085 -0.72525,-0.144442 -0.91401,0 -0.41051,0.314121 -0.35332,1.095111 -0.10154,1.337821 0.46907,0.452169 1.90043,0.285733 2.32297,0.387897 -0.019,0.02703 -0.32452,0.476232 -1.01063,0.721614 -0.46645,0.166821 -0.97698,-0.0343 -1.42353,0.116584 -0.60549,0.204588 -1.05334,0.76192 -0.74084,1.013885 0.44317,0.357333 3.02141,-0.06777 4.23333,0.613278 2.59925,1.461545 3.35828,3.908664 6.79566,2.931307 -0.0139,0.820883 0.75329,2.922216 0.0662,3.179809 -0.51253,-0.111473 -2.29911,-1.033432 -3.1577,-0.18787 -0.77094,0.787925 0.017,2.57398 -0.59337,3.417507 -1.33696,1.15768 -4.08655,1.030635 -4.43371,2.74597 -0.12563,0.620765 2.70876,-0.104496 3.12361,0.454897 0.59569,0.803226 -1.09626,2.854189 -0.74236,3.513853 0.13185,0.245762 0.34865,0.273686 0.5313,0.216864 1.18806,-0.369598 2.00653,-2.952192 3.43745,-2.858464 1.10704,0.04842 2.05539,1.613429 2.91042,2.204508 1.4673,1.014413 5.47399,2.333829 7.14375,1.462026 1.65242,-0.862806 3.01731,-3.617057 3.70416,-5.258268 h 0.26459 c 0.25506,1.071827 -0.0373,2.702719 0.57652,3.62003 1.25824,2.052149 2.73931,-0.453115 3.18453,-1.503363 1.41605,-2.93026 2.25742,-6.781754 2.32436,-10.030308 0.8341,-0.07574 2.06436,-0.124916 2.34456,-0.977191 0.1932,-0.559532 -0.55641,-0.746552 -0.90809,-0.634168 -2.18761,0.699076 -1.18263,-2.381412 -0.74395,-3.924302 0.0653,-0.229541 0.0869,-0.49693 0,-0.692616 -0.0869,-0.195686 -0.21865,-0.290081 -0.69252,-0.145582 -0.57301,0.17473 -0.7034,1.198151 -1.08979,1.193689 -0.32317,-0.0037 -0.8319,-1.175518 -1.55604,-0.929106 -0.82639,0.281206 -0.38078,1.365439 -0.83423,2.200778 -0.52293,0.963343 -1.9642,1.659051 -3.13452,2.297139 0,0 -0.14788,-2.213427 -0.41601,-3.283652 -0.2659,-1.061369 -1.17149,-3.066348 -1.17149,-3.066348 0.76689,0.03242 1.60605,0.589482 2.38125,0.173929 1.62871,-0.873085 3.14386,-3.223088 2.84126,-5.200801 -0.41011,-1.276059 -1.94803,-1.906032 -2.72669,-2.921053 -0.59902,-0.780838 -0.52072,-2.487699 -1.43749,-2.370825 z" id="path971" sodipodi:nodetypes="acsssccszscccssscssscccccsssscccccccccsszsssscacscsaa"/></g></svg>